<svg clip-rule="evenodd" fill-rule="evenodd" height="512" image-rendering="optimizeQuality" shape-rendering="geometricPrecision" text-rendering="geometricPrecision" viewBox="0 0 512 512" width="512" xmlns="http://www.w3.org/2000/svg"><g id="Layer_x0020_1"><g id="_607399560"><path id="_607400448" d="m11.6941 511.974h-.0259843c-5.28899-.124016-8.752-2.97639-10.389-6.67679-1.14213-2.28898-1.57087-4.97009-1.00748-7.72207l31.2674-152.836c.0909452-.497246.216142-.988586.369686-1.47284l.00708664-.0248032.00472442-.0141733.0921263-.276379.0153544-.0425198.0803152-.219686.00708664-.0200788c.669687-1.79528 1.7256-3.31655 3.0319-4.52245l264.263-264.264.0885829-.0862207 38.0304-38.034c11.1603-11.165 28.141 5.79214 16.9654 16.9678l-29.6292 29.6351 104.776 104.781 47.6364-47.6352c14.2678-14.2725 14.2713-37.6655 0-51.9356l-52.8368-52.838c-9.63664-9.62956-23.7686-13.0949-36.9001-9.05318-15.1016 4.64411-22.1587-18.2906-7.05829-22.9394 21.6438-6.66144 44.9954-.903546 60.9226 15.0237l52.8403 52.8403c23.6552 23.6516 23.6516 62.2266 0 85.8794l-56.1179 56.1191-.111024.108662-42.8706 42.8706-.253938.262206-122.883 122.879c-3.66261 3.66615-7.95357 4.30041-11.6693 3.10395-.175985-.0566931-.349607-.115748-.52323-.180709l-.00354332-.00236221c-.696853-.261024-1.37126-.585829-2.01379-.966145-.159449-.0944885-.316536-.19252-.472442-.292914l-.00354332-.00236221c-.155906-.101575-.307088-.204331-.45945-.312993l-.00354332-.00354332c-.303544-.216142-.59764-.445277-.883467-.686223l-.00354332-.00354332-.418112-.368505-.00354332-.00354332c-.137008-.126378-.271654-.255119-.402757-.386222l-.00236221-.00354332c-.131103-.131103-.261024-.264568-.386222-.401576l-.00354332-.00354332c-.126378-.137008-.250394-.27756-.369686-.418112l-.00354332-.00354332c-.120473-.141733-.237402-.285828-.350788-.432285l-.00354332-.00354332c-.114567-.146457-.223229-.295276-.331891-.446458l-.00354332-.00354332c-3.04371-4.26497-3.5445-10.2591 1.3441-15.1477l114.396-114.396-21.0603-21.0603-161.105 161.102 21.0579 21.0568c4.28741-4.28505 8.85829-9.78428 13.5721-13.5685l.755908-.755908c2.70473-2.70473 5.74844-3.7571 8.65042-3.64371 2.76733-.158268 5.55002.872837 8.32207 3.64607 1.45394 1.45394 2.45552 3.18781 3.00828 5.02797 1.22363 3.51261.807877 7.57207-2.28072 11.1426-.227953.272835-.471261.538584-.727561.794884l-22.8178 22.8142-.155906.153544-42.8387 42.8387c-1.07599 1.15276-2.40001 2.10473-3.94135 2.76733l-.134646.0578742-.135827.055512-.0307088.0129922-.022441.00826774c-.79016.316536-1.6063.54449-2.43544.686223l-36.8812 7.48703h348.527c15.7973 0 15.7985 23.9977.00472442 23.9977h-466.739l-.33071-.00826774zm48.6143-165.054 20.9552 20.9552 83.8255 83.8207 26.2654-26.2643-104.778-104.781-26.2678 26.269zm326.099-116.533 26.2643-26.2643-104.776-104.782-26.2678 26.2666 104.779 104.779zm-253.984 44.419-28.878 28.878 21.0591 21.0579 161.109-161.105-21.0532-21.0544-132.237 132.224zm198.984-65.4722-28.728-28.7304-161.105 161.108 28.7269 28.7257 161.106-161.103zm-280.782 161.841-23.1981 113.413 113.409-23.2016-11.7591-11.7591-78.4514-78.4526z" fill="#000002"/><path id="_607399920" d="m324.866 82.3644 104.776 104.781 47.6364-47.6352c14.2678-14.2725 14.2713-37.6655 0-51.9356l-52.8368-52.838c-9.63664-9.62956-23.7686-13.0949-36.9001-9.05318-7.55081 2.32205-13.0914-2.25119-14.8548-7.98546l-17.7331 18.7701c3.79607 4.28151 4.87324 10.93-.458269 16.2615l-29.6292 29.6351z" fill="#ff6b6b"/><path id="_607400328" d="m412.671 204.123-104.776-104.7814-26.267 26.2664 104.779 104.78z" fill="#feca57"/><g fill="#fedc91"><path id="_607400040" d="m124.604 324.743 161.109-161.105-21.053-21.055-132.237 132.224-28.878 28.878z"/><path id="_607400544" d="m302.68 180.604-161.106 161.108 28.727 28.725 161.107-161.102z"/><path id="_607400016" d="m348.372964 226.300175-161.105 161.102 21.0579 21.0568c4.28741-4.28505 8.85829-9.78428 13.5721-13.5685l.755908-.755908c2.70473-2.70473 5.74844-3.7571 8.65042-3.64371 2.76733-.158268 5.55002.872837 8.32207 3.64607l16.3465-14.7579-.421655-.372048-.405119-.389765-.389765-.405119-.373229-.421655-.354332-.435828-.335434-.450001c-3.04371-4.26497-3.5445-10.2591 1.3441-15.1477l114.396-114.396-21.0603-21.0603z"/></g><path id="_607400160" d="m191.355 425.432-104.7787-104.781-26.2678 26.269 20.9551 20.956 83.8254 83.82z" fill="#f9e4c7"/><path id="_607400136" d="m129.077 449.628-78.4513-78.452-23.1981 113.413 113.4084-23.202z" fill="#3e4b5a"/></g></g></svg>